<svg width="1201" height="360" viewBox="0 0 1201 360" fill="none" xmlns="http://www.w3.org/2000/svg">
<path d="M121.5 83.7C136.1 83.7 148.6 85.8 159 90C169.4 94 177.9 100 184.5 108C191.1 115.8 195.9 125.4 198.9 136.8C201.9 148 203.4 160.8 203.4 175.2C203.4 183.2 202.8 191.9 201.6 201.3C200.6 210.7 198.6 220.2 195.6 229.8C192.8 239.2 188.9 248.3 183.9 257.1C178.9 265.9 172.4 273.7 164.4 280.5C156.6 287.3 147.2 292.8 136.2 297C125.2 301 112.2 303 97.2 303C80.6 303 66.8 300.5 55.8 295.5C45 290.5 36.3 283.8 29.7 275.4C23.3 266.8 18.7 256.7 15.9 245.1C13.3 233.5 12 221.1 12 207.9C12 192.3 13.8 177.1 17.4 162.3C21 147.3 27 134 35.4 122.4C44 110.8 55.3 101.5 69.3 94.5C83.3 87.3 100.7 83.7 121.5 83.7ZM115.2 130.2C108.2 130.2 102.1 131.5 96.9 134.1C91.9 136.5 87.6 139.8 84 144C80.6 148.2 77.8 152.9 75.6 158.1C73.6 163.3 72 168.7 70.8 174.3C69.6 179.7 68.8 185 68.4 190.2C68 195.2 67.8 199.7 67.8 203.7C67.8 221.9 70.8 235.2 76.8 243.6C83 252 91.7 256.2 102.9 256.2C112.1 256.2 119.6 253.3 125.4 247.5C131.2 241.5 135.7 234.4 138.9 226.2C142.3 217.8 144.6 209.2 145.8 200.4C147 191.4 147.6 183.8 147.6 177.6C147.6 163 145.1 151.5 140.1 143.1C135.1 134.5 126.8 130.2 115.2 130.2ZM327.881 273.6C327.881 269.2 328.181 263.5 328.781 256.5C329.581 249.3 330.281 241.8 330.881 234C331.681 226 332.381 218.3 332.981 210.9C333.781 203.5 334.181 197.3 334.181 192.3C334.181 187.1 332.881 182.5 330.281 178.5C327.881 174.3 323.081 172.2 315.881 172.2C308.881 172.2 303.081 173.9 298.481 177.3C293.881 180.7 289.981 186.9 286.781 195.9C283.781 204.9 281.281 217.3 279.281 233.1C277.281 248.9 275.381 269.2 273.581 294C273.381 296.4 272.881 298 272.081 298.8C271.281 299.6 269.581 300 266.981 300H256.181C249.981 300 244.881 299.4 240.881 298.2C237.081 296.8 233.981 294.9 231.581 292.5C229.381 290.1 227.781 287.2 226.781 283.8C225.981 280.2 225.581 276.1 225.581 271.5C225.581 268.5 225.681 264.3 225.881 258.9C226.281 253.3 226.881 245.7 227.681 236.1C228.481 226.3 229.381 214 230.381 199.2C231.581 184.2 232.981 165.7 234.581 143.7C234.781 139.3 235.281 136.7 236.081 135.9C236.681 135.3 238.281 135 240.881 135H252.581C258.581 135 263.481 135.7 267.281 137.1C271.281 138.5 274.481 140.4 276.881 142.8C279.281 145 280.981 147.7 281.981 150.9C282.981 153.9 283.581 157 283.781 160.2C289.981 149.6 297.081 142.3 305.081 138.3C313.081 134.1 323.081 132 335.081 132C343.481 132 350.781 132.9 356.981 134.7C363.181 136.5 368.281 139.6 372.281 144C376.481 148.2 379.581 153.8 381.581 160.8C383.581 167.6 384.581 176.1 384.581 186.3C384.581 189.5 384.381 194.1 383.981 200.1C383.581 206.1 383.081 212.7 382.481 219.9C381.881 226.9 381.181 234.3 380.381 242.1C379.781 249.7 379.181 256.8 378.581 263.4C377.981 270 377.481 275.8 377.081 280.8C376.681 285.8 376.481 289.1 376.481 290.7C376.481 295.1 375.981 297.8 374.981 298.8C373.981 299.6 371.781 300 368.381 300H358.781C352.381 300 347.181 299.4 343.181 298.2C339.181 297 336.081 295.3 333.881 293.1C331.681 290.9 330.081 288.2 329.081 285C328.281 281.6 327.881 277.8 327.881 273.6ZM480.623 303C471.823 303 463.023 301.9 454.223 299.7C445.623 297.5 437.823 293.7 430.823 288.3C424.023 282.9 418.423 275.7 414.023 266.7C409.623 257.7 407.423 246.4 407.423 232.8C407.423 227.8 407.823 221.8 408.623 214.8C409.423 207.8 410.923 200.6 413.123 193.2C415.523 185.8 418.723 178.5 422.723 171.3C426.923 163.9 432.323 157.3 438.923 151.5C445.523 145.7 453.523 141 462.923 137.4C472.323 133.8 483.523 132 496.523 132C506.923 132 515.723 133.2 522.923 135.6C530.123 138 535.923 141.3 540.323 145.5C544.723 149.5 547.923 154.2 549.923 159.6C551.923 165 552.923 170.8 552.923 177C552.923 186.2 551.023 194 547.223 200.4C543.623 206.8 538.823 212.2 532.823 216.6C527.023 220.8 520.523 224.1 513.323 226.5C506.123 228.9 499.023 230.8 492.023 232.2C485.023 233.4 478.523 234.2 472.523 234.6C466.723 234.8 462.223 234.9 459.023 234.9C459.023 238.7 459.523 242.5 460.523 246.3C461.723 249.9 463.423 253.1 465.623 255.9C467.823 258.7 470.723 261 474.323 262.8C477.923 264.6 482.323 265.5 487.523 265.5C492.723 265.5 496.723 264.7 499.523 263.1C502.523 261.3 504.923 259.4 506.723 257.4C508.523 255.2 510.023 253.3 511.223 251.7C512.623 249.9 514.423 249 516.623 249C517.623 249 519.323 249.3 521.723 249.9C524.323 250.3 526.923 251.3 529.523 252.9C532.123 254.5 534.423 256.7 536.423 259.5C538.423 262.3 539.423 265.9 539.423 270.3C539.423 276.1 537.623 281.1 534.023 285.3C530.423 289.5 525.723 292.9 519.923 295.5C514.323 298.1 508.023 300 501.023 301.2C494.023 302.4 487.223 303 480.623 303ZM486.323 171.9C481.923 171.9 478.123 173.2 474.923 175.8C471.923 178.2 469.323 181.3 467.123 185.1C465.123 188.9 463.523 193.1 462.323 197.7C461.323 202.3 460.523 206.7 459.923 210.9C472.323 210.7 482.323 208.6 489.923 204.6C497.723 200.6 501.623 194.9 501.623 187.5C501.623 183.5 500.323 179.9 497.723 176.7C495.323 173.5 491.523 171.9 486.323 171.9ZM654.199 129L642.799 295.5C642.599 298.5 641.499 300 639.499 300H622.999C611.799 300 603.799 297.8 598.999 293.4C594.199 289 591.799 282.7 591.799 274.5C591.799 271.5 591.899 267 592.099 261C592.499 255 592.999 248 593.599 240C594.199 231.8 594.799 223 595.399 213.6C596.199 204 596.999 194.4 597.799 184.8C598.599 175 599.299 165.3 599.899 155.7C600.699 146.1 601.399 137.2 601.999 129H553.999C551.799 129 550.699 127.6 550.699 124.8L551.599 108C551.799 105.4 552.199 102.9 552.799 100.5C553.599 97.9 554.799 95.6 556.399 93.6C557.999 91.6 559.999 90 562.399 88.8C564.999 87.6 568.099 87 571.699 87H705.799C706.999 87 708.099 87.3 709.099 87.9C710.099 88.5 710.599 89.6 710.599 91.2L709.399 108.9C708.999 114.9 707.299 119.8 704.299 123.6C701.499 127.2 695.599 129 686.599 129H654.199ZM769.491 303C760.691 303 751.891 301.9 743.091 299.7C734.491 297.5 726.691 293.7 719.691 288.3C712.891 282.9 707.291 275.7 702.891 266.7C698.491 257.7 696.291 246.4 696.291 232.8C696.291 227.8 696.691 221.8 697.491 214.8C698.291 207.8 699.791 200.6 701.991 193.2C704.391 185.8 707.591 178.5 711.591 171.3C715.791 163.9 721.191 157.3 727.791 151.5C734.391 145.7 742.391 141 751.791 137.4C761.191 133.8 772.391 132 785.391 132C795.791 132 804.591 133.2 811.791 135.6C818.991 138 824.791 141.3 829.191 145.5C833.591 149.5 836.791 154.2 838.791 159.6C840.791 165 841.791 170.8 841.791 177C841.791 186.2 839.891 194 836.091 200.4C832.491 206.8 827.691 212.2 821.691 216.6C815.891 220.8 809.391 224.1 802.191 226.5C794.991 228.9 787.891 230.8 780.891 232.2C773.891 233.4 767.391 234.2 761.391 234.6C755.591 234.8 751.091 234.9 747.891 234.9C747.891 238.7 748.391 242.5 749.391 246.3C750.591 249.9 752.291 253.1 754.491 255.9C756.691 258.7 759.591 261 763.191 262.8C766.791 264.6 771.191 265.5 776.391 265.5C781.591 265.5 785.591 264.7 788.391 263.1C791.391 261.3 793.791 259.4 795.591 257.4C797.391 255.2 798.891 253.3 800.091 251.7C801.491 249.9 803.291 249 805.491 249C806.491 249 808.191 249.3 810.591 249.9C813.191 250.3 815.791 251.3 818.391 252.9C820.991 254.5 823.291 256.7 825.291 259.5C827.291 262.3 828.291 265.9 828.291 270.3C828.291 276.1 826.491 281.1 822.891 285.3C819.291 289.5 814.591 292.9 808.791 295.5C803.191 298.1 796.891 300 789.891 301.2C782.891 302.4 776.091 303 769.491 303ZM775.191 171.9C770.791 171.9 766.991 173.2 763.791 175.8C760.791 178.2 758.191 181.3 755.991 185.1C753.991 188.9 752.391 193.1 751.191 197.7C750.191 202.3 749.391 206.7 748.791 210.9C761.191 210.7 771.191 208.6 778.791 204.6C786.591 200.6 790.491 194.9 790.491 187.5C790.491 183.5 789.191 179.9 786.591 176.7C784.191 173.5 780.391 171.9 775.191 171.9ZM1002.36 275.7C1002.36 276.7 1001.86 278.7 1000.86 281.7C999.859 284.7 998.259 287.8 996.059 291C993.859 294.2 991.059 297 987.659 299.4C984.459 301.8 980.559 303 975.959 303C970.559 303 965.159 301.2 959.759 297.6C954.559 294 949.359 289.1 944.159 282.9C938.959 276.7 933.659 269.4 928.259 261C923.059 252.4 917.759 243.1 912.359 233.1C911.559 243.7 910.759 254.1 909.959 264.3C909.159 274.5 908.359 284.4 907.559 294C907.359 296.4 906.859 298 906.059 298.8C905.259 299.6 903.559 300 900.959 300H890.159C883.959 300 878.859 299.4 874.859 298.2C870.859 296.8 867.759 294.9 865.559 292.5C863.359 290.1 861.759 287.1 860.759 283.5C859.959 279.7 859.559 275.4 859.559 270.6C859.559 268.2 859.659 265.7 859.859 263.1C860.059 260.5 860.359 256.8 860.759 252C861.159 247.2 861.659 240.9 862.259 233.1C863.059 225.3 863.959 215 864.959 202.2C865.959 189.4 867.059 173.7 868.259 155.1C869.659 136.3 871.159 113.5 872.759 86.7C872.959 82.3 873.459 79.7 874.259 78.9C874.859 78.3 876.459 78 879.059 78H890.759C896.959 78 902.059 78.7 906.059 80.1C910.059 81.5 913.259 83.4 915.659 85.8C918.059 88.2 919.659 91 920.459 94.2C921.459 97.4 921.959 100.7 921.959 104.1C921.959 106.1 921.759 109.5 921.359 114.3C921.159 118.9 920.859 124.6 920.459 131.4C920.059 138 919.459 145.5 918.659 153.9C918.059 162.3 917.459 171.1 916.859 180.3L964.859 136.5C966.659 134.9 968.259 133.8 969.659 133.2C971.259 132.6 972.459 132.3 973.259 132.3C975.459 132.3 977.859 133.7 980.459 136.5C983.059 139.3 985.459 142.6 987.659 146.4C990.059 150 991.959 153.8 993.359 157.8C994.959 161.6 995.759 164.7 995.759 167.1C995.759 172.9 991.059 179 981.659 185.4C972.459 191.8 958.459 199 939.659 207C948.059 216.4 956.059 225 963.659 232.8C971.259 240.6 977.859 247.5 983.459 253.5C989.259 259.5 993.859 264.4 997.259 268.2C1000.66 272 1002.36 274.5 1002.36 275.7Z" fill="black"/>
<path d="M1193 88.5C1193 96.9 1191.45 104.6 1188.35 111.6C1185.25 118.6 1180.9 124.65 1175.3 129.75C1169.8 134.75 1163.25 138.6 1155.65 141.3C1148.05 144.1 1139.75 145.5 1130.75 145.5C1121.75 145.5 1113.45 144.1 1105.85 141.3C1098.25 138.6 1091.65 134.75 1086.05 129.75C1080.55 124.65 1076.25 118.6 1073.15 111.6C1070.05 104.6 1068.5 96.9 1068.5 88.5C1068.5 80.1 1070.05 72.4 1073.15 65.4C1076.25 58.4 1080.55 52.4 1086.05 47.4C1091.65 42.3 1098.25 38.4 1105.85 35.7C1113.45 32.9 1121.75 31.5 1130.75 31.5C1139.75 31.5 1148.05 32.9 1155.65 35.7C1163.25 38.4 1169.8 42.3 1175.3 47.4C1180.9 52.4 1185.25 58.4 1188.35 65.4C1191.45 72.4 1193 80.1 1193 88.5ZM1085 88.5C1085 95.4 1086.15 101.65 1088.45 107.25C1090.85 112.75 1094.1 117.45 1098.2 121.35C1102.4 125.25 1107.25 128.25 1112.75 130.35C1118.35 132.45 1124.35 133.5 1130.75 133.5C1137.15 133.5 1143.1 132.45 1148.6 130.35C1154.2 128.25 1159.05 125.25 1163.15 121.35C1167.25 117.45 1170.5 112.75 1172.9 107.25C1175.3 101.65 1176.5 95.4 1176.5 88.5C1176.5 81.6 1175.3 75.4 1172.9 69.9C1170.5 64.3 1167.25 59.55 1163.15 55.65C1159.05 51.75 1154.2 48.75 1148.6 46.65C1143.1 44.55 1137.15 43.5 1130.75 43.5C1124.35 43.5 1118.35 44.55 1112.75 46.65C1107.25 48.75 1102.4 51.75 1098.2 55.65C1094.1 59.55 1090.85 64.3 1088.45 69.9C1086.15 75.4 1085 81.6 1085 88.5ZM1161.5 79.5C1161.5 84.2 1160.35 88.2 1158.05 91.5C1155.75 94.8 1152.5 97.35 1148.3 99.15L1163 120H1144.25L1131.65 102H1131.5H1121V120H1104.5V57H1131.5C1140.9 57 1148.25 58.95 1153.55 62.85C1158.85 66.75 1161.5 72.3 1161.5 79.5ZM1143.5 79.5C1143.5 74.6 1142.25 71.15 1139.75 69.15C1137.25 67.05 1134.5 66 1131.5 66H1121V93H1131.5C1134.5 93 1137.25 92 1139.75 90C1142.25 87.9 1143.5 84.4 1143.5 79.5Z" fill="black"/>
</svg>
